<svg width="15" height="18" viewBox="0 0 15 18" fill="none" xmlns="http://www.w3.org/2000/svg">
<path d="M9.69815 0C12.0723 0 13.991 0.937412 14.0173 3.32037V16.6194C14.0173 16.7683 13.9822 16.9172 13.9121 17.0486C13.7982 17.2589 13.6055 17.4166 13.369 17.4867C13.1412 17.5568 12.8871 17.5217 12.6768 17.3991L6.99981 14.5606L1.31401 17.3991C1.18347 17.4683 1.03366 17.513 0.884725 17.513C0.394117 17.513 -0.00012207 17.11 -0.00012207 16.6194V3.32037C-0.00012207 0.937412 1.92727 0 4.2927 0H9.69815ZM10.2939 5.29156H3.69696C3.32024 5.29156 3.01361 5.59819 3.01361 5.98367C3.01361 6.36827 3.32024 6.67578 3.69696 6.67578H10.2939C10.6706 6.67578 10.9772 6.36827 10.9772 5.98367C10.9772 5.59819 10.6706 5.29156 10.2939 5.29156Z" fill="#DADADA"/>
</svg>
