<svg width="17" height="19" viewBox="0 0 17 19" fill="none" xmlns="http://www.w3.org/2000/svg">
<path d="M12.1847 0.751953C14.8909 0.751953 16.3978 2.31139 16.3978 4.98345V14.0334C16.3978 16.7493 14.8909 18.2737 12.1847 18.2737H4.84221C2.17891 18.2737 0.628235 16.7493 0.628235 14.0334V4.98345C0.628235 2.31139 2.17891 0.751953 4.84221 0.751953H12.1847ZM5.07875 12.7894C4.81593 12.7631 4.56186 12.8857 4.42169 13.1135C4.28151 13.3326 4.28151 13.6217 4.42169 13.8494C4.56186 14.0685 4.81593 14.1999 5.07875 14.1648H11.9473C12.2968 14.1298 12.5605 13.831 12.5605 13.4815C12.5605 13.1223 12.2968 12.8244 11.9473 12.7894H5.07875ZM11.9473 8.79355H5.07875C4.70116 8.79355 4.39541 9.10105 4.39541 9.47777C4.39541 9.85449 4.70116 10.1611 5.07875 10.1611H11.9473C12.324 10.1611 12.6306 9.85449 12.6306 9.47777C12.6306 9.10105 12.324 8.79355 11.9473 8.79355ZM7.69737 4.82575H5.07875V4.83451C4.70116 4.83451 4.39541 5.14115 4.39541 5.51786C4.39541 5.89458 4.70116 6.20121 5.07875 6.20121H7.69737C8.07497 6.20121 8.3816 5.89458 8.3816 5.50823C8.3816 5.13238 8.07497 4.82575 7.69737 4.82575Z" fill="#DADADA"/>
</svg>
