<svg width="18" height="19" viewBox="0 0 18 19" fill="none" xmlns="http://www.w3.org/2000/svg">
<path fill-rule="evenodd" clip-rule="evenodd" d="M10.2649 12.5204C11.3197 12.5204 12.1782 13.3728 12.1782 14.4206V17.1154C12.1782 17.3406 12.3587 17.5211 12.59 17.5263H14.2598C15.5757 17.5263 16.6454 16.4698 16.6454 15.1714V7.52843C16.6393 7.08162 16.4264 6.6611 16.061 6.38163L10.285 1.77517C9.50967 1.16103 8.42508 1.16103 7.64711 1.77692L1.9105 6.37988C1.53115 6.66811 1.31827 7.08863 1.31389 7.54332V15.1714C1.31389 16.4698 2.38359 17.5263 3.69947 17.5263H5.38506C5.62248 17.5263 5.81522 17.338 5.81522 17.1067C5.81522 17.0559 5.82135 17.0051 5.83186 16.9569V14.4206C5.83186 13.3789 6.68517 12.5274 7.73209 12.5204H10.2649ZM14.2598 18.8405H12.5742C11.6088 18.8177 10.8641 18.0599 10.8641 17.1154V14.4206C10.8641 14.0973 10.5951 13.8345 10.2649 13.8345H7.73647C7.4132 13.8362 7.14599 14.1 7.14599 14.4206V17.1067C7.14599 17.1724 7.13723 17.2355 7.11883 17.295C7.02422 18.1624 6.28305 18.8405 5.38506 18.8405H3.69947C1.65906 18.8405 -0.000244141 17.1943 -0.000244141 15.1714V7.53719C0.00851672 6.66636 0.409764 5.86912 1.10275 5.34435L6.82797 0.749273C8.08866 -0.249465 9.84521 -0.249465 11.1033 0.747521L16.8697 5.34697C17.5469 5.86299 17.9481 6.65847 17.9595 7.51879V15.1714C17.9595 17.1943 16.3002 18.8405 14.2598 18.8405Z" fill="#797979"/>
</svg>
