<svg width="14" height="18" viewBox="0 0 14 18" fill="none" xmlns="http://www.w3.org/2000/svg">
<path fill-rule="evenodd" clip-rule="evenodd" d="M13.8772 14.1868C13.8772 17.0744 9.9173 17.4082 6.93948 17.4082L6.72638 17.408C4.82917 17.4034 0 17.2836 0 14.1693C0 11.3406 3.80077 10.9626 6.75592 10.9484L7.15257 10.9481C9.04966 10.9527 13.8772 11.0725 13.8772 14.1868ZM6.93948 12.2621C3.20648 12.2621 1.31413 12.9033 1.31413 14.1693C1.31413 15.4466 3.20648 16.0941 6.93948 16.0941C10.6716 16.0941 12.5631 15.4528 12.5631 14.1868C12.5631 12.9095 10.6716 12.2621 6.93948 12.2621ZM6.93948 0C9.50466 0 11.5906 2.08684 11.5906 4.65202C11.5906 7.2172 9.50466 9.30316 6.93948 9.30316H6.91144C4.35152 9.29528 2.27782 7.20756 2.28656 4.64939C2.28656 2.08684 4.37342 0 6.93948 0ZM6.93948 1.25105C5.06378 1.25105 3.53762 2.77632 3.53762 4.65202C3.5315 6.52159 5.04626 8.04598 6.91407 8.05299L6.93948 8.67851V8.05299C8.8143 8.05299 10.3396 6.52684 10.3396 4.65202C10.3396 2.77632 8.8143 1.25105 6.93948 1.25105Z" fill="#DADADA"/>
</svg>
